<svg xmlns="http://www.w3.org/2000/svg" viewBox="0 0 100 100" width="100" height="100" role="img" aria-label="Tsinghua University">
  <!-- emblem ring -->
  <circle cx="50" cy="50" r="47" fill="none" stroke="currentColor" stroke-width="2.5" />
  <g fill="none" stroke="currentColor" stroke-width="3" stroke-linecap="round" stroke-linejoin="round">
    <!-- roof with upturned eaves (二校门) -->
    <path d="M16 42 Q20 30 34 32 L66 32 Q80 30 84 42 Q86 46 81 47 L19 47 Q14 46 16 42 Z" />
    <path d="M16 42 Q12 39 15 35" />
    <path d="M84 42 Q88 39 85 35" />
    <!-- columns -->
    <path d="M22 47 L22 80 M38 50 L38 80 M62 50 L62 80 M78 47 L78 80" />
    <!-- three arched bays -->
    <path d="M22 54 Q30 48 38 54" />
    <path d="M38 54 Q50 46 62 54" />
    <path d="M62 54 Q70 48 78 54" />
    <!-- base plinth -->
    <path d="M20 80 L80 80 M16 86 L84 86 M18 80 L18 86 M82 80 L82 86" />
  </g>
</svg>
